# xmcd
#
# Track frame offsets:
#	150
#	14220
#	26699
#	38437
#	54891
#	76891
#	92314
#	106764
#	120093
#	137503
#	149104
#	161542
#	176973
#	193495
#	208095
#	229931
#	242190
#	259806
#	273280
#	285316
#
# Disc length: 4019 seconds
#
# Revision: 1
# Processed by: cddbd v1.5.1PL2 Copyright (c) Steve Scherf et al.
# Submitted via: audiograbber 1.83.01
#
DISCID=150fb114
DTITLE=Various Artist - Country Number Ones
DYEAR=2004
DGENRE=Country
TTITLE0=Glen Cambell - Wichita Lineman
TTITLE1=Merle Haggard - Okie From Muskogee
TTITLE2=George Jones - She Thinks I Still Care
TTITLE3=Kenny Rogers - Lucille
TTITLE4=Deana Carter - Strawberry Wine
TTITLE5=Tanya Tucker - If It Don't Come Easy
TTITLE6=Glen Cambell - Rhinestone Cowboy
TTITLE7=Crystal Gayle - Talking In Your Sleep
TTITLE8=Don Williams - Heartbeat In The Darkness
TTITLE9=Crystal Gayle - Don't It Make My Brown Eyes Blue
TTITLE10=Tanya Tucker - Strong Enough To Bend
TTITLE11=Deana Carter - We Danced Anyway
TTITLE12=Eddie Rabbitt - On Second Thought
TTITLE13=Tanya Tucker - Just Another Love
TTITLE14=Dan Seals - Everything That Glitters (Is Not Gold)
TTITLE15=Glen Cambell - Galveston
TTITLE16=Kenny Rogers - Lady
TTITLE17=Crystal Galye - Why Have You Left The One You Left Me For
TTITLE18=Sonny James - Only The Lonely
TTITLE19=Billie Jo Spears - Blanket On The Ground
EXTD=
EXTT0=
EXTT1=
EXTT2=
EXTT3=
EXTT4=
EXTT5=
EXTT6=
EXTT7=
EXTT8=
EXTT9=
EXTT10=
EXTT11=
EXTT12=
EXTT13=
EXTT14=
EXTT15=
EXTT16=
EXTT17=
EXTT18=
EXTT19=
PLAYORDER=
